<?xml version="1.0" encoding="UTF-8" standalone="no"?><svg xmlns="http://www.w3.org/2000/svg" xmlns:xlink="http://www.w3.org/1999/xlink" contentScriptType="application/ecmascript" contentStyleType="text/css" height="391px" preserveAspectRatio="none" style="width:587px;height:391px;" version="1.1" viewBox="0 0 587 391" width="587px" zoomAndPan="magnify"><defs><filter height="300%" id="fu3g3glxc8ct3" width="300%" x="-1" y="-1"><feGaussianBlur result="blurOut" stdDeviation="2.0"/><feColorMatrix in="blurOut" result="blurOut2" type="matrix" values="0 0 0 0 0 0 0 0 0 0 0 0 0 0 0 0 0 0 .4 0"/><feOffset dx="4.0" dy="4.0" in="blurOut2" result="blurOut3"/><feBlend in="SourceGraphic" in2="blurOut3" mode="normal"/></filter></defs><g><text fill="#000000" font-family="sans-serif" font-size="18" lengthAdjust="spacingAndGlyphs" textLength="143" x="225.5" y="16.708">Domain Objects</text><text fill="#000000" font-family="sans-serif" font-size="18" lengthAdjust="spacingAndGlyphs" textLength="122" x="236" y="37.6611">Sholia Project</text><text fill="#000000" font-family="sans-serif" font-size="18" lengthAdjust="spacingAndGlyphs" textLength="0" x="300" y="58.6143"/><!--MD5=[44a1b4afaef76c16e6c9ec4990ad0c8d]
class Item--><rect fill="#FEFECE" filter="url(#fu3g3glxc8ct3)" height="163.2422" id="Item" style="stroke: #A80036; stroke-width: 1.5;" width="222" x="6" y="70.8594"/><ellipse cx="98.75" cy="86.8594" fill="#ADD1B2" rx="11" ry="11" style="stroke: #A80036; stroke-width: 1.0;"/><path d="M101.2344,92.7344 Q100.6563,93.0469 100.0156,93.2031 Q99.375,93.3594 98.6719,93.3594 Q96.1563,93.3594 94.8281,91.6875 Q93.5156,90.0156 93.5156,86.8594 Q93.5156,83.7031 94.8281,82.0313 Q96.1563,80.3594 98.6719,80.3594 Q99.375,80.3594 100.0156,80.5156 Q100.6719,80.6719 101.2344,80.9844 L101.2344,83.7813 Q100.5938,83.2031 100,82.9375 Q99.4063,82.6719 98.7813,82.6719 Q97.4375,82.6719 96.75,83.7344 Q96.0625,84.7813 96.0625,86.8594 Q96.0625,88.9375 96.75,90 Q97.4375,91.0469 98.7813,91.0469 Q99.4063,91.0469 100,90.7813 Q100.5938,90.5156 101.2344,89.9375 L101.2344,92.7344 Z "/><text fill="#000000" font-family="sans-serif" font-size="12" lengthAdjust="spacingAndGlyphs" textLength="28" x="119.25" y="91.0083">Item</text><line style="stroke: #A80036; stroke-width: 1.5;" x1="7" x2="227" y1="102.8594" y2="102.8594"/><rect fill="none" height="6" style="stroke: #C82930; stroke-width: 1.0;" width="6" x="14" y="110.8594"/><text fill="#000000" font-family="sans-serif" font-size="11" lengthAdjust="spacingAndGlyphs" textLength="45" x="26" y="117.0698">id: Long</text><rect fill="none" height="6" style="stroke: #C82930; stroke-width: 1.0;" width="6" x="14" y="123.6641"/><text fill="#000000" font-family="sans-serif" font-size="11" lengthAdjust="spacingAndGlyphs" textLength="73" x="26" y="129.8745">name: String</text><rect fill="none" height="6" style="stroke: #C82930; stroke-width: 1.0;" width="6" x="14" y="136.4688"/><text fill="#000000" font-family="sans-serif" font-size="11" lengthAdjust="spacingAndGlyphs" textLength="93" x="26" y="142.6792">quantity: Double</text><rect fill="none" height="6" style="stroke: #C82930; stroke-width: 1.0;" width="6" x="14" y="149.2734"/><text fill="#000000" font-family="sans-serif" font-size="11" lengthAdjust="spacingAndGlyphs" textLength="196" x="26" y="155.4839">measurement: MeasurementEnum</text><rect fill="none" height="6" style="stroke: #C82930; stroke-width: 1.0;" width="6" x="14" y="162.0781"/><text fill="#000000" font-family="sans-serif" font-size="11" lengthAdjust="spacingAndGlyphs" textLength="147" x="26" y="168.2886">language: LanguageEnum</text><rect fill="none" height="6" style="stroke: #C82930; stroke-width: 1.0;" width="6" x="14" y="174.8828"/><text fill="#000000" font-family="sans-serif" font-size="11" lengthAdjust="spacingAndGlyphs" textLength="142" x="26" y="181.0933">pricePerQuantity: Double</text><rect fill="none" height="6" style="stroke: #C82930; stroke-width: 1.0;" width="6" x="14" y="187.6875"/><text fill="#000000" font-family="sans-serif" font-size="11" lengthAdjust="spacingAndGlyphs" textLength="68" x="26" y="193.8979">shop: String</text><rect fill="none" height="6" style="stroke: #C82930; stroke-width: 1.0;" width="6" x="14" y="200.4922"/><text fill="#000000" font-family="sans-serif" font-size="11" lengthAdjust="spacingAndGlyphs" textLength="72" x="26" y="206.7026">notes: String</text><rect fill="none" height="6" style="stroke: #C82930; stroke-width: 1.0;" width="6" x="14" y="213.2969"/><text fill="#000000" font-family="sans-serif" font-size="11" lengthAdjust="spacingAndGlyphs" textLength="142" x="26" y="219.5073">currency: CurrencyEnum</text><line style="stroke: #A80036; stroke-width: 1.5;" x1="7" x2="227" y1="226.1016" y2="226.1016"/><!--MD5=[9630763e33facf945baa437552379d6e]
class ShoppingList--><rect fill="#FEFECE" filter="url(#fu3g3glxc8ct3)" height="86.4141" id="ShoppingList" style="stroke: #A80036; stroke-width: 1.5;" width="127" x="263.5" y="109.3594"/><ellipse cx="285.7" cy="125.3594" fill="#ADD1B2" rx="11" ry="11" style="stroke: #A80036; stroke-width: 1.0;"/><path d="M288.1844,131.2344 Q287.6063,131.5469 286.9656,131.7031 Q286.325,131.8594 285.6219,131.8594 Q283.1063,131.8594 281.7781,130.1875 Q280.4656,128.5156 280.4656,125.3594 Q280.4656,122.2031 281.7781,120.5313 Q283.1063,118.8594 285.6219,118.8594 Q286.325,118.8594 286.9656,119.0156 Q287.6219,119.1719 288.1844,119.4844 L288.1844,122.2813 Q287.5438,121.7031 286.95,121.4375 Q286.3563,121.1719 285.7313,121.1719 Q284.3875,121.1719 283.7,122.2344 Q283.0125,123.2813 283.0125,125.3594 Q283.0125,127.4375 283.7,128.5 Q284.3875,129.5469 285.7313,129.5469 Q286.3563,129.5469 286.95,129.2813 Q287.5438,129.0156 288.1844,128.4375 L288.1844,131.2344 Z "/><text fill="#000000" font-family="sans-serif" font-size="12" lengthAdjust="spacingAndGlyphs" textLength="79" x="301.3" y="129.5083">ShoppingList</text><line style="stroke: #A80036; stroke-width: 1.5;" x1="264.5" x2="389.5" y1="141.3594" y2="141.3594"/><rect fill="none" height="6" style="stroke: #C82930; stroke-width: 1.0;" width="6" x="271.5" y="149.3594"/><text fill="#000000" font-family="sans-serif" font-size="11" lengthAdjust="spacingAndGlyphs" textLength="45" x="283.5" y="155.5698">id: Long</text><rect fill="none" height="6" style="stroke: #C82930; stroke-width: 1.0;" width="6" x="271.5" y="162.1641"/><text fill="#000000" font-family="sans-serif" font-size="11" lengthAdjust="spacingAndGlyphs" textLength="73" x="283.5" y="168.3745">name: String</text><rect fill="none" height="6" style="stroke: #C82930; stroke-width: 1.0;" width="6" x="271.5" y="174.9688"/><text fill="#000000" font-family="sans-serif" font-size="11" lengthAdjust="spacingAndGlyphs" textLength="101" x="283.5" y="181.1792">items: List&lt;Item&gt;</text><line style="stroke: #A80036; stroke-width: 1.5;" x1="264.5" x2="389.5" y1="187.7734" y2="187.7734"/><!--MD5=[f942659406c6b8d57ba4bbf962e741bb]
class MeasurementEnum--><rect fill="#FEFECE" filter="url(#fu3g3glxc8ct3)" height="99.2188" id="MeasurementEnum" style="stroke: #A80036; stroke-width: 1.5;" width="150" x="426" y="102.8594"/><ellipse cx="441" cy="118.8594" fill="#EB937F" rx="11" ry="11" style="stroke: #A80036; stroke-width: 1.0;"/><path d="M445.125,125.3594 L437.3906,125.3594 L437.3906,112.3594 L445.125,112.3594 L445.125,114.625 L439.8438,114.625 L439.8438,117.3594 L444.625,117.3594 L444.625,119.625 L439.8438,119.625 L439.8438,123.0938 L445.125,123.0938 L445.125,125.3594 Z "/><text fill="#000000" font-family="sans-serif" font-size="12" lengthAdjust="spacingAndGlyphs" textLength="118" x="455" y="123.0083">MeasurementEnum</text><line style="stroke: #A80036; stroke-width: 1.5;" x1="427" x2="575" y1="134.8594" y2="134.8594"/><text fill="#000000" font-family="sans-serif" font-size="11" lengthAdjust="spacingAndGlyphs" textLength="9" x="432" y="149.0698">G</text><text fill="#000000" font-family="sans-serif" font-size="11" lengthAdjust="spacingAndGlyphs" textLength="16" x="432" y="161.8745">KG</text><text fill="#000000" font-family="sans-serif" font-size="11" lengthAdjust="spacingAndGlyphs" textLength="6" x="432" y="174.6792">L</text><text fill="#000000" font-family="sans-serif" font-size="11" lengthAdjust="spacingAndGlyphs" textLength="15" x="432" y="187.4839">PC</text><line style="stroke: #A80036; stroke-width: 1.5;" x1="427" x2="575" y1="194.0781" y2="194.0781"/><!--MD5=[e2bf785f0e495272737a5e0f47020f68]
class LanguageEnum--><rect fill="#FEFECE" filter="url(#fu3g3glxc8ct3)" height="86.4141" id="LanguageEnum" style="stroke: #A80036; stroke-width: 1.5;" width="128" x="53" y="293.8594"/><ellipse cx="68" cy="309.8594" fill="#EB937F" rx="11" ry="11" style="stroke: #A80036; stroke-width: 1.0;"/><path d="M72.125,316.3594 L64.3906,316.3594 L64.3906,303.3594 L72.125,303.3594 L72.125,305.625 L66.8438,305.625 L66.8438,308.3594 L71.625,308.3594 L71.625,310.625 L66.8438,310.625 L66.8438,314.0938 L72.125,314.0938 L72.125,316.3594 Z "/><text fill="#000000" font-family="sans-serif" font-size="12" lengthAdjust="spacingAndGlyphs" textLength="96" x="82" y="314.0083">LanguageEnum</text><line style="stroke: #A80036; stroke-width: 1.5;" x1="54" x2="180" y1="325.8594" y2="325.8594"/><text fill="#000000" font-family="sans-serif" font-size="11" lengthAdjust="spacingAndGlyphs" textLength="15" x="59" y="340.0698">EN</text><text fill="#000000" font-family="sans-serif" font-size="11" lengthAdjust="spacingAndGlyphs" textLength="15" x="59" y="352.8745">DE</text><text fill="#000000" font-family="sans-serif" font-size="11" lengthAdjust="spacingAndGlyphs" textLength="17" x="59" y="365.6792">RO</text><line style="stroke: #A80036; stroke-width: 1.5;" x1="54" x2="180" y1="372.2734" y2="372.2734"/><!--MD5=[4260f3b4452d5e63cf2fdc2625c787c5]
class CurrencyEnum--><rect fill="#FEFECE" filter="url(#fu3g3glxc8ct3)" height="86.4141" id="CurrencyEnum" style="stroke: #A80036; stroke-width: 1.5;" width="123" x="216.5" y="293.8594"/><ellipse cx="231.5" cy="309.8594" fill="#EB937F" rx="11" ry="11" style="stroke: #A80036; stroke-width: 1.0;"/><path d="M235.625,316.3594 L227.8906,316.3594 L227.8906,303.3594 L235.625,303.3594 L235.625,305.625 L230.3438,305.625 L230.3438,308.3594 L235.125,308.3594 L235.125,310.625 L230.3438,310.625 L230.3438,314.0938 L235.625,314.0938 L235.625,316.3594 Z "/><text fill="#000000" font-family="sans-serif" font-size="12" lengthAdjust="spacingAndGlyphs" textLength="91" x="245.5" y="314.0083">CurrencyEnum</text><line style="stroke: #A80036; stroke-width: 1.5;" x1="217.5" x2="338.5" y1="325.8594" y2="325.8594"/><text fill="#000000" font-family="sans-serif" font-size="11" lengthAdjust="spacingAndGlyphs" textLength="32" x="222.5" y="340.0698">EURO</text><text fill="#000000" font-family="sans-serif" font-size="11" lengthAdjust="spacingAndGlyphs" textLength="45" x="222.5" y="352.8745">DOLLAR</text><text fill="#000000" font-family="sans-serif" font-size="11" lengthAdjust="spacingAndGlyphs" textLength="25" x="222.5" y="365.6792">RON</text><line style="stroke: #A80036; stroke-width: 1.5;" x1="217.5" x2="338.5" y1="372.2734" y2="372.2734"/><!--MD5=[3e4f0a373ca11bbb549a93598af5f23e]
link Item to ShoppingList--><!--MD5=[ce6969e8a0c437b7dc8ad8c699ce3b4a]
link ShoppingList to MeasurementEnum--><!--MD5=[ba8fece8fddd616f651b1a0ad65073e5]
link Item to LanguageEnum--><!--MD5=[5a3dee67b3893c4e27cb87e5d359c842]
link LanguageEnum to CurrencyEnum--><!--MD5=[fe6bacac23326eba3c7555b4c88000ef]
@startuml

title Domain Objects\nSholia Project\n

class Item {
- id: Long
- name: String
- quantity: Double
- measurement: MeasurementEnum
- language: LanguageEnum
- pricePerQuantity: Double
- shop: String
- notes: String
- currency: CurrencyEnum
}

class ShoppingList{
- id: Long
- name: String
- items: List<Item>
}

enum MeasurementEnum {
G
KG
L
PC
}

enum LanguageEnum{
EN
DE
RO
}

enum CurrencyEnum{
EURO
DOLLAR
RON
}

@enduml

PlantUML version 1.2020.09(Sun May 10 12:51:06 CEST 2020)
(GPL source distribution)
Java Runtime: OpenJDK Runtime Environment
JVM: OpenJDK 64-Bit Server VM
Java Version: 11.0.8+10-b944.31
Operating System: Linux
Default Encoding: UTF-8
Language: en
Country: US
--></g></svg>